<svg width="23" height="27" viewBox="0 0 23 27" fill="none" xmlns="http://www.w3.org/2000/svg">
<path d="M13.7537 23.1008C13.7537 24.8344 12.74 26.2398 11.4896 26.2398C10.2392 26.2398 9.2256 24.8344 9.2256 23.1008C9.2256 21.3672 10.2392 19.9618 11.4896 19.9618C12.74 19.9618 13.7537 21.3672 13.7537 23.1008ZM20.7696 5.66653L20.9404 5.36413C24.8898 1.73233 21.505 -1.71963 17.9522 1.54734C17.5942 1.87654 17.2886 2.2229 17.0285 2.58087C18.5106 3.35747 19.7892 4.42282 20.7696 5.66653ZM2.04986 5.35954L2.2174 5.6569C3.1991 4.41449 4.47849 3.3505 5.96106 2.57548C5.70187 2.21865 5.39743 1.87342 5.04099 1.54514C1.49081 -1.72467 -1.89669 1.72463 2.04986 5.35954Z" fill="#FFA1E0"/>
</svg>
