<svg width="55" height="10" viewBox="0 0 55 10" fill="none" xmlns="http://www.w3.org/2000/svg">
<path d="M5.87653 3.144C5.87653 3.568 5.77653 3.968 5.57653 4.344C5.37653 4.72 5.05653 5.028 4.61653 5.268C4.17653 5.5 3.61253 5.616 2.92453 5.616H1.41253V9H0.0445313V0.659999H2.92453C3.56453 0.659999 4.10453 0.771999 4.54453 0.995999C4.99253 1.212 5.32453 1.508 5.54053 1.884C5.76453 2.26 5.87653 2.68 5.87653 3.144ZM2.92453 4.5C3.44453 4.5 3.83253 4.384 4.08853 4.152C4.34453 3.912 4.47253 3.576 4.47253 3.144C4.47253 2.232 3.95653 1.776 2.92453 1.776H1.41253V4.5H2.92453ZM6.72525 5.664C6.72525 5 6.86125 4.412 7.13325 3.9C7.41325 3.388 7.78925 2.992 8.26125 2.712C8.74125 2.424 9.26925 2.28 9.84525 2.28C10.3653 2.28 10.8173 2.384 11.2013 2.592C11.5933 2.792 11.9053 3.044 12.1373 3.348V2.388H13.5173V9H12.1373V8.016C11.9053 8.328 11.5893 8.588 11.1893 8.796C10.7893 9.004 10.3333 9.108 9.82125 9.108C9.25325 9.108 8.73325 8.964 8.26125 8.676C7.78925 8.38 7.41325 7.972 7.13325 7.452C6.86125 6.924 6.72525 6.328 6.72525 5.664ZM12.1373 5.688C12.1373 5.232 12.0413 4.836 11.8493 4.5C11.6653 4.164 11.4213 3.908 11.1173 3.732C10.8133 3.556 10.4853 3.468 10.1333 3.468C9.78125 3.468 9.45325 3.556 9.14925 3.732C8.84525 3.9 8.59725 4.152 8.40525 4.488C8.22125 4.816 8.12925 5.208 8.12925 5.664C8.12925 6.12 8.22125 6.52 8.40525 6.864C8.59725 7.208 8.84525 7.472 9.14925 7.656C9.46125 7.832 9.78925 7.92 10.1333 7.92C10.4853 7.92 10.8133 7.832 11.1173 7.656C11.4213 7.48 11.6653 7.224 11.8493 6.888C12.0413 6.544 12.1373 6.144 12.1373 5.688ZM24.1941 2.388L22.1421 9H20.7021L19.3701 4.116L18.0381 9H16.5981L14.5341 2.388H15.9261L17.3061 7.704L18.7101 2.388H20.1381L21.4821 7.68L22.8501 2.388H24.1941ZM27.6164 9.108C27.0964 9.108 26.6284 9.016 26.2124 8.832C25.8044 8.64 25.4804 8.384 25.2404 8.064C25.0004 7.736 24.8724 7.372 24.8564 6.972H26.2724C26.2964 7.252 26.4284 7.488 26.6684 7.68C26.9164 7.864 27.2244 7.956 27.5924 7.956C27.9764 7.956 28.2724 7.884 28.4804 7.74C28.6964 7.588 28.8044 7.396 28.8044 7.164C28.8044 6.916 28.6844 6.732 28.4444 6.612C28.2124 6.492 27.8404 6.36 27.3284 6.216C26.8324 6.08 26.4284 5.948 26.1164 5.82C25.8044 5.692 25.5324 5.496 25.3004 5.232C25.0764 4.968 24.9644 4.62 24.9644 4.188C24.9644 3.836 25.0684 3.516 25.2764 3.228C25.4844 2.932 25.7804 2.7 26.1644 2.532C26.5564 2.364 27.0044 2.28 27.5084 2.28C28.2604 2.28 28.8644 2.472 29.3204 2.856C29.7844 3.232 30.0324 3.748 30.0644 4.404H28.6964C28.6724 4.108 28.5524 3.872 28.3364 3.696C28.1204 3.52 27.8284 3.432 27.4604 3.432C27.1004 3.432 26.8244 3.5 26.6324 3.636C26.4404 3.772 26.3444 3.952 26.3444 4.176C26.3444 4.352 26.4084 4.5 26.5364 4.62C26.6644 4.74 26.8204 4.836 27.0044 4.908C27.1884 4.972 27.4604 5.056 27.8204 5.16C28.3004 5.288 28.6924 5.42 28.9964 5.556C29.3084 5.684 29.5764 5.876 29.8004 6.132C30.0244 6.388 30.1404 6.728 30.1484 7.152C30.1484 7.528 30.0444 7.864 29.8364 8.16C29.6284 8.456 29.3324 8.688 28.9484 8.856C28.5724 9.024 28.1284 9.108 27.6164 9.108ZM33.2226 3.504V7.164C33.2226 7.412 33.2786 7.592 33.3906 7.704C33.5106 7.808 33.7106 7.86 33.9906 7.86H34.8306V9H33.7506C33.1346 9 32.6626 8.856 32.3346 8.568C32.0066 8.28 31.8426 7.812 31.8426 7.164V3.504H31.0626V2.388H31.8426V0.744H33.2226V2.388H34.8306V3.504H33.2226ZM38.9594 9.108C38.3354 9.108 37.7714 8.968 37.2674 8.688C36.7634 8.4 36.3674 8 36.0794 7.488C35.7914 6.968 35.6474 6.368 35.6474 5.688C35.6474 5.016 35.7954 4.42 36.0914 3.9C36.3874 3.38 36.7914 2.98 37.3034 2.7C37.8154 2.42 38.3874 2.28 39.0194 2.28C39.6514 2.28 40.2234 2.42 40.7354 2.7C41.2474 2.98 41.6514 3.38 41.9474 3.9C42.2434 4.42 42.3914 5.016 42.3914 5.688C42.3914 6.36 42.2394 6.956 41.9354 7.476C41.6314 7.996 41.2154 8.4 40.6874 8.688C40.1674 8.968 39.5914 9.108 38.9594 9.108ZM38.9594 7.92C39.3114 7.92 39.6394 7.836 39.9434 7.668C40.2554 7.5 40.5074 7.248 40.6994 6.912C40.8914 6.576 40.9874 6.168 40.9874 5.688C40.9874 5.208 40.8954 4.804 40.7114 4.476C40.5274 4.14 40.2834 3.888 39.9794 3.72C39.6754 3.552 39.3474 3.468 38.9954 3.468C38.6434 3.468 38.3154 3.552 38.0114 3.72C37.7154 3.888 37.4794 4.14 37.3034 4.476C37.1274 4.804 37.0394 5.208 37.0394 5.688C37.0394 6.4 37.2194 6.952 37.5794 7.344C37.9474 7.728 38.4074 7.92 38.9594 7.92ZM45.1118 3.348C45.3118 3.012 45.5758 2.752 45.9038 2.568C46.2398 2.376 46.6358 2.28 47.0918 2.28V3.696H46.7438C46.2078 3.696 45.7998 3.832 45.5198 4.104C45.2478 4.376 45.1118 4.848 45.1118 5.52V9H43.7438V2.388H45.1118V3.348ZM54.4092 5.532C54.4092 5.78 54.3932 6.004 54.3612 6.204H49.3092C49.3492 6.732 49.5452 7.156 49.8972 7.476C50.2492 7.796 50.6812 7.956 51.1932 7.956C51.9292 7.956 52.4492 7.648 52.7532 7.032H54.2292C54.0292 7.64 53.6652 8.14 53.1372 8.532C52.6172 8.916 51.9692 9.108 51.1932 9.108C50.5612 9.108 49.9932 8.968 49.4892 8.688C48.9932 8.4 48.6012 8 48.3132 7.488C48.0332 6.968 47.8932 6.368 47.8932 5.688C47.8932 5.008 48.0292 4.412 48.3012 3.9C48.5812 3.38 48.9692 2.98 49.4652 2.7C49.9692 2.42 50.5452 2.28 51.1932 2.28C51.8172 2.28 52.3732 2.416 52.8612 2.688C53.3492 2.96 53.7292 3.344 54.0012 3.84C54.2732 4.328 54.4092 4.892 54.4092 5.532ZM52.9812 5.1C52.9732 4.596 52.7932 4.192 52.4412 3.888C52.0892 3.584 51.6532 3.432 51.1332 3.432C50.6612 3.432 50.2572 3.584 49.9212 3.888C49.5852 4.184 49.3852 4.588 49.3212 5.1H52.9812Z" fill="black"/>
</svg>
